<svg width="20" height="20" viewBox="0 0 20 20" fill="none" xmlns="http://www.w3.org/2000/svg">
<rect width="20" height="20" fill="white"/>
<rect width="20" height="20" fill="#44D9E6"/>
<path d="M2.46875 4.79688C3.11979 4.79688 3.76562 4.79427 4.40625 4.78906C5.05208 4.78385 5.64323 4.77865 6.17969 4.77344C6.71615 4.76302 7.17448 4.75 7.55469 4.73438C7.9349 4.71875 8.19271 4.69792 8.32812 4.67188L7.94531 5.71094C7.77344 5.66406 7.57292 5.6224 7.34375 5.58594C7.14583 5.55469 6.90365 5.52604 6.61719 5.5C6.33594 5.46875 6.01042 5.45312 5.64062 5.45312C5.51562 5.45312 5.36458 5.45833 5.1875 5.46875C5.01562 5.47396 4.84896 5.48177 4.6875 5.49219C4.5 5.5026 4.3099 5.51302 4.11719 5.52344V9.78906C4.65365 9.78385 5.13802 9.76823 5.57031 9.74219C6.0026 9.71615 6.36979 9.6901 6.67188 9.66406C7.02604 9.63281 7.33854 9.59635 7.60938 9.55469L7.36719 10.6875C7.00781 10.6406 6.64062 10.5964 6.26562 10.5547C5.94271 10.5182 5.59115 10.487 5.21094 10.4609C4.83073 10.4297 4.46615 10.4141 4.11719 10.4141V15.3125C4.73177 15.3125 5.29688 15.2865 5.8125 15.2344C6.32812 15.1823 6.77865 15.1224 7.16406 15.0547C7.61198 14.9818 8.02083 14.8958 8.39062 14.7969L8.16406 16.0625C8.10156 16.0573 8.00781 16.0521 7.88281 16.0469C7.75781 16.0417 7.61719 16.0365 7.46094 16.0312C7.3099 16.026 7.14844 16.0208 6.97656 16.0156C6.8099 16.0156 6.65104 16.013 6.5 16.0078C6.34896 16.0078 6.21354 16.0052 6.09375 16C5.97917 16 5.89583 16 5.84375 16H2.46875V15.9688C2.5 15.8594 2.52865 15.724 2.55469 15.5625C2.58594 15.401 2.61198 15.2005 2.63281 14.9609C2.65365 14.7214 2.66927 14.4375 2.67969 14.1094C2.6901 13.776 2.69531 13.388 2.69531 12.9453V7.85938C2.69531 7.41667 2.6901 7.03125 2.67969 6.70312C2.66927 6.36979 2.65365 6.08333 2.63281 5.84375C2.61198 5.59896 2.58594 5.39583 2.55469 5.23438C2.52865 5.07292 2.5 4.9375 2.46875 4.82812V4.79688ZM11.9609 12.9453C11.9609 13.388 11.9661 13.776 11.9766 14.1094C11.9922 14.4375 12.0078 14.7214 12.0234 14.9609C12.0443 15.2005 12.0677 15.401 12.0938 15.5625C12.125 15.724 12.1562 15.8594 12.1875 15.9688V16H10.3125V15.9688C10.3438 15.8594 10.3724 15.724 10.3984 15.5625C10.4297 15.401 10.4557 15.2005 10.4766 14.9609C10.4974 14.7214 10.513 14.4375 10.5234 14.1094C10.5339 13.776 10.5391 13.388 10.5391 12.9453V7.85938C10.5391 7.41667 10.5339 7.03125 10.5234 6.70312C10.513 6.36979 10.4974 6.08333 10.4766 5.84375C10.4557 5.59896 10.4297 5.39583 10.3984 5.23438C10.3724 5.07292 10.3438 4.9375 10.3125 4.82812V4.79688C10.4167 4.80729 10.526 4.81771 10.6406 4.82812C10.7396 4.83854 10.849 4.84635 10.9688 4.85156C11.0938 4.85156 11.2214 4.85156 11.3516 4.85156C11.5547 4.85156 11.8281 4.82812 12.1719 4.78125C12.5208 4.72917 12.9635 4.70312 13.5 4.70312C14 4.70312 14.4609 4.77083 14.8828 4.90625C15.3099 5.04167 15.6797 5.23958 15.9922 5.5C16.3047 5.76042 16.5469 6.08073 16.7188 6.46094C16.8958 6.83594 16.9844 7.26302 16.9844 7.74219C16.9844 8.11719 16.9349 8.46615 16.8359 8.78906C16.7422 9.10677 16.6068 9.39583 16.4297 9.65625C16.2578 9.91667 16.0495 10.1484 15.8047 10.3516C15.5599 10.5495 15.2865 10.7161 14.9844 10.8516L17.7266 14.7031C17.862 14.8958 17.987 15.0625 18.1016 15.2031C18.2214 15.3438 18.3333 15.4635 18.4375 15.5625C18.5469 15.6615 18.651 15.7448 18.75 15.8125C18.849 15.875 18.9505 15.9271 19.0547 15.9688V16H16.7969C16.7812 15.901 16.7292 15.7708 16.6406 15.6094C16.5573 15.4427 16.4583 15.2786 16.3438 15.1172L13.5781 11.2188C13.3229 11.2448 13.0599 11.2578 12.7891 11.2578C12.5182 11.2578 12.2422 11.2344 11.9609 11.1875V12.9453ZM11.9609 10.5781C12.4714 10.6719 12.9375 10.6849 13.3594 10.6172C13.7865 10.5495 14.151 10.401 14.4531 10.1719C14.7604 9.94271 14.9974 9.63281 15.1641 9.24219C15.3359 8.84635 15.4219 8.36719 15.4219 7.80469C15.4219 7.41406 15.3776 7.0599 15.2891 6.74219C15.2005 6.42448 15.0677 6.15625 14.8906 5.9375C14.7188 5.71354 14.5 5.54167 14.2344 5.42188C13.9688 5.29688 13.6589 5.23438 13.3047 5.23438C13.0807 5.23438 12.8854 5.24479 12.7188 5.26562C12.5521 5.28125 12.4115 5.29948 12.2969 5.32031C12.1615 5.34635 12.0495 5.375 11.9609 5.40625V10.5781Z" fill="white"/>
</svg>
