<svg width="44" height="44" viewBox="0 0 44 44" fill="none" xmlns="http://www.w3.org/2000/svg">
<path d="M16.3429 0C20.6773 0 24.8341 1.72183 27.899 4.78671C30.9639 7.85159 32.6857 12.0085 32.6857 16.3429C32.6857 20.3909 31.2023 24.112 28.7634 26.9783L29.4423 27.6571H31.4286L44 40.2286L40.2286 44L27.6571 31.4286V29.4423L26.9783 28.7634C24.0128 31.2947 20.2418 32.6855 16.3429 32.6857C12.0085 32.6857 7.85159 30.9639 4.78671 27.899C1.72183 24.8341 0 20.6773 0 16.3429C0 12.0085 1.72183 7.85159 4.78671 4.78671C7.85159 1.72183 12.0085 0 16.3429 0ZM16.3429 5.02857C10.0571 5.02857 5.02857 10.0571 5.02857 16.3429C5.02857 22.6286 10.0571 27.6571 16.3429 27.6571C22.6286 27.6571 27.6571 22.6286 27.6571 16.3429C27.6571 10.0571 22.6286 5.02857 16.3429 5.02857Z" fill="white"/>
</svg>
