<svg width="64" height="20" viewBox="0 0 64 20" fill="none" xmlns="http://www.w3.org/2000/svg">
<path d="M1.83594 7.85938C1.83594 7.41667 1.83073 7.03125 1.82031 6.70312C1.8099 6.36979 1.79427 6.08333 1.77344 5.84375C1.7526 5.59896 1.72656 5.39583 1.69531 5.23438C1.66927 5.07292 1.64062 4.9375 1.60938 4.82812V4.79688C1.71354 4.80208 1.82292 4.80469 1.9375 4.80469C2.03646 4.8099 2.14583 4.8125 2.26562 4.8125C2.39062 4.8125 2.51823 4.8125 2.64844 4.8125C2.83594 4.8125 3.08854 4.79427 3.40625 4.75781C3.72917 4.72135 4.14323 4.70312 4.64844 4.70312C5.11719 4.70312 5.54948 4.76562 5.94531 4.89062C6.34115 5.01042 6.68229 5.1849 6.96875 5.41406C7.26042 5.64323 7.48698 5.92708 7.64844 6.26562C7.8151 6.59896 7.89844 6.97917 7.89844 7.40625C7.89844 7.76562 7.84896 8.08854 7.75 8.375C7.65104 8.65625 7.51042 8.90365 7.32812 9.11719C7.15104 9.32552 6.9349 9.5026 6.67969 9.64844C6.42969 9.78906 6.15365 9.90104 5.85156 9.98438C6.29427 10.0521 6.69792 10.1667 7.0625 10.3281C7.42708 10.4844 7.73958 10.6823 8 10.9219C8.26562 11.1615 8.46875 11.4427 8.60938 11.7656C8.75521 12.0833 8.82812 12.4375 8.82812 12.8281C8.82812 13.9271 8.46615 14.7526 7.74219 15.3047C7.01823 15.8516 5.9349 16.125 4.49219 16.125C4.33594 16.125 4.15365 16.1172 3.94531 16.1016C3.73698 16.0911 3.52344 16.0781 3.30469 16.0625C3.09115 16.0469 2.88021 16.0312 2.67188 16.0156C2.46354 16.0052 2.28125 16 2.125 16H1.60938V15.9688C1.64062 15.8594 1.66927 15.724 1.69531 15.5625C1.72656 15.401 1.7526 15.2005 1.77344 14.9609C1.79427 14.7214 1.8099 14.4375 1.82031 14.1094C1.83073 13.776 1.83594 13.388 1.83594 12.9453V7.85938ZM4.70312 10.4609C4.34896 10.4609 4.05208 10.474 3.8125 10.5C3.57292 10.526 3.38802 10.5521 3.25781 10.5781V12.9453C3.25781 13.5547 3.26823 14.0573 3.28906 14.4531C3.3099 14.849 3.33854 15.1719 3.375 15.4219C3.57292 15.4479 3.77083 15.4714 3.96875 15.4922C4.16667 15.513 4.32552 15.5234 4.44531 15.5234C5.41927 15.5234 6.13021 15.3073 6.57812 14.875C7.03125 14.4375 7.25781 13.7682 7.25781 12.8672C7.25781 12.513 7.20312 12.1901 7.09375 11.8984C6.98958 11.6016 6.83073 11.3464 6.61719 11.1328C6.40885 10.9193 6.14323 10.7552 5.82031 10.6406C5.5026 10.5208 5.13021 10.4609 4.70312 10.4609ZM3.25781 9.875C3.40365 9.89062 3.53385 9.90104 3.64844 9.90625C3.76302 9.90625 3.88542 9.90625 4.01562 9.90625C4.36979 9.90625 4.69271 9.85677 4.98438 9.75781C5.27604 9.65365 5.52344 9.5 5.72656 9.29688C5.9349 9.09375 6.09635 8.84115 6.21094 8.53906C6.32552 8.23177 6.38281 7.875 6.38281 7.46875C6.38281 7.13021 6.34115 6.82292 6.25781 6.54688C6.17448 6.27083 6.04948 6.03646 5.88281 5.84375C5.72135 5.64583 5.52083 5.49479 5.28125 5.39062C5.04167 5.28646 4.76823 5.23438 4.46094 5.23438C4.26302 5.23438 4.08854 5.24219 3.9375 5.25781C3.79167 5.27344 3.66667 5.29167 3.5625 5.3125C3.44271 5.33333 3.34115 5.35938 3.25781 5.39062V9.875ZM18.3438 16V15.9688C18.3542 15.9427 18.362 15.9036 18.3672 15.8516C18.3724 15.7995 18.375 15.7526 18.375 15.7109C18.375 15.5495 18.3516 15.3724 18.3047 15.1797C18.263 14.9818 18.1797 14.737 18.0547 14.4453L17.1094 12.3203C16.8177 12.3099 16.4297 12.3047 15.9453 12.3047C15.4609 12.3047 14.9375 12.3047 14.375 12.3047C13.9635 12.3047 13.5651 12.3047 13.1797 12.3047C12.7995 12.3047 12.4557 12.3099 12.1484 12.3203L11.25 14.3828C11.1719 14.5755 11.0885 14.7865 11 15.0156C10.9115 15.2448 10.8672 15.4766 10.8672 15.7109C10.8672 15.7786 10.8724 15.8359 10.8828 15.8828C10.8932 15.9245 10.9036 15.9531 10.9141 15.9688V16H9.32031V15.9688C9.41406 15.8698 9.53125 15.6953 9.67188 15.4453C9.8125 15.1901 9.96615 14.8724 10.1328 14.4922L14.6094 4.5625H15.2344L19.4766 14.1094C19.5755 14.3333 19.6771 14.5521 19.7812 14.7656C19.8906 14.974 19.9922 15.1615 20.0859 15.3281C20.1797 15.4948 20.263 15.6354 20.3359 15.75C20.4089 15.8646 20.4583 15.9375 20.4844 15.9688V16H18.3438ZM13.2812 11.6328C13.5833 11.6328 13.8932 11.6328 14.2109 11.6328C14.5286 11.6276 14.8385 11.625 15.1406 11.625C15.4479 11.6198 15.7422 11.6172 16.0234 11.6172C16.3047 11.612 16.5599 11.6068 16.7891 11.6016L14.5938 6.64062L12.4375 11.6328H13.2812ZM21.8906 4.79688L29.9375 13.3594V7.85938C29.9375 7.41667 29.9323 7.03125 29.9219 6.70312C29.9115 6.36979 29.8958 6.08333 29.875 5.84375C29.8542 5.59896 29.8281 5.39583 29.7969 5.23438C29.7708 5.07292 29.7422 4.9375 29.7109 4.82812V4.79688H31.1016V4.82812C31.0703 4.9375 31.0417 5.07292 31.0156 5.23438C30.9896 5.39583 30.9661 5.59896 30.9453 5.84375C30.9245 6.08333 30.9089 6.36979 30.8984 6.70312C30.888 7.03125 30.8828 7.41667 30.8828 7.85938V16.1562H30.6094L22.5625 7.60156V12.9453C22.5625 13.388 22.5677 13.776 22.5781 14.1094C22.5885 14.4375 22.6042 14.7214 22.625 14.9609C22.6458 15.2005 22.6693 15.401 22.6953 15.5625C22.7214 15.724 22.75 15.8594 22.7812 15.9688V16H21.3906V15.9688C21.4219 15.8594 21.4505 15.724 21.4766 15.5625C21.5078 15.401 21.5339 15.2005 21.5547 14.9609C21.5755 14.7214 21.5911 14.4375 21.6016 14.1094C21.612 13.776 21.6172 13.388 21.6172 12.9453V7.85938C21.6172 7.41667 21.612 7.03125 21.6016 6.70312C21.5911 6.36979 21.5755 6.08333 21.5547 5.84375C21.5339 5.59896 21.5078 5.39583 21.4766 5.23438C21.4505 5.07292 21.4219 4.9375 21.3906 4.82812V4.79688H21.8906ZM33.2812 15.9688C33.3125 15.8594 33.3411 15.724 33.3672 15.5625C33.3984 15.401 33.4245 15.2005 33.4453 14.9609C33.4661 14.7214 33.4818 14.4375 33.4922 14.1094C33.5026 13.776 33.5078 13.388 33.5078 12.9453V7.85938C33.5078 7.41667 33.5026 7.03125 33.4922 6.70312C33.4818 6.36979 33.4661 6.08333 33.4453 5.84375C33.4245 5.59896 33.3984 5.39583 33.3672 5.23438C33.3411 5.07292 33.3125 4.9375 33.2812 4.82812V4.79688H35.1562V4.82812C35.125 4.9375 35.0938 5.07292 35.0625 5.23438C35.0365 5.39583 35.013 5.59896 34.9922 5.84375C34.9766 6.08333 34.9609 6.36979 34.9453 6.70312C34.9349 7.03125 34.9297 7.41667 34.9297 7.85938V9.60156L39.4922 5.875C40.0026 5.45833 40.2578 5.09896 40.2578 4.79688H42.4531V4.82812C42.1458 4.90104 41.8333 5.04167 41.5156 5.25C41.2031 5.45312 40.8698 5.70312 40.5156 6L36.4844 9.375L41.3359 14.7031C41.5391 14.9115 41.7109 15.0859 41.8516 15.2266C41.9974 15.362 42.125 15.4766 42.2344 15.5703C42.3438 15.6589 42.4427 15.7344 42.5312 15.7969C42.625 15.8542 42.7214 15.9115 42.8203 15.9688V16H40.5312C40.5104 15.9531 40.474 15.8932 40.4219 15.8203C40.375 15.7474 40.3177 15.6719 40.25 15.5938C40.1875 15.5156 40.1172 15.4349 40.0391 15.3516C39.9661 15.2682 39.8958 15.1901 39.8281 15.1172L34.9297 9.74219V12.9453C34.9297 13.388 34.9349 13.776 34.9453 14.1094C34.9609 14.4375 34.9766 14.7214 34.9922 14.9609C35.013 15.2005 35.0365 15.401 35.0625 15.5625C35.0938 15.724 35.125 15.8594 35.1562 15.9688V16H33.2812V15.9688Z" fill="black"/>
<rect x="44" width="20" height="20" fill="#44D9E6"/>
<path d="M46.4688 4.79688C47.1198 4.79688 47.7656 4.79427 48.4062 4.78906C49.0521 4.78385 49.6432 4.77865 50.1797 4.77344C50.7161 4.76302 51.1745 4.75 51.5547 4.73438C51.9349 4.71875 52.1927 4.69792 52.3281 4.67188L51.9453 5.71094C51.7734 5.66406 51.5729 5.6224 51.3438 5.58594C51.1458 5.55469 50.9036 5.52604 50.6172 5.5C50.3359 5.46875 50.0104 5.45312 49.6406 5.45312C49.5156 5.45312 49.3646 5.45833 49.1875 5.46875C49.0156 5.47396 48.849 5.48177 48.6875 5.49219C48.5 5.5026 48.3099 5.51302 48.1172 5.52344V9.78906C48.6536 9.78385 49.138 9.76823 49.5703 9.74219C50.0026 9.71615 50.3698 9.6901 50.6719 9.66406C51.026 9.63281 51.3385 9.59635 51.6094 9.55469L51.3672 10.6875C51.0078 10.6406 50.6406 10.5964 50.2656 10.5547C49.9427 10.5182 49.5911 10.487 49.2109 10.4609C48.8307 10.4297 48.4661 10.4141 48.1172 10.4141V15.3125C48.7318 15.3125 49.2969 15.2865 49.8125 15.2344C50.3281 15.1823 50.7786 15.1224 51.1641 15.0547C51.612 14.9818 52.0208 14.8958 52.3906 14.7969L52.1641 16.0625C52.1016 16.0573 52.0078 16.0521 51.8828 16.0469C51.7578 16.0417 51.6172 16.0365 51.4609 16.0312C51.3099 16.026 51.1484 16.0208 50.9766 16.0156C50.8099 16.0156 50.651 16.013 50.5 16.0078C50.349 16.0078 50.2135 16.0052 50.0938 16C49.9792 16 49.8958 16 49.8438 16H46.4688V15.9688C46.5 15.8594 46.5286 15.724 46.5547 15.5625C46.5859 15.401 46.612 15.2005 46.6328 14.9609C46.6536 14.7214 46.6693 14.4375 46.6797 14.1094C46.6901 13.776 46.6953 13.388 46.6953 12.9453V7.85938C46.6953 7.41667 46.6901 7.03125 46.6797 6.70312C46.6693 6.36979 46.6536 6.08333 46.6328 5.84375C46.612 5.59896 46.5859 5.39583 46.5547 5.23438C46.5286 5.07292 46.5 4.9375 46.4688 4.82812V4.79688ZM55.9609 12.9453C55.9609 13.388 55.9661 13.776 55.9766 14.1094C55.9922 14.4375 56.0078 14.7214 56.0234 14.9609C56.0443 15.2005 56.0677 15.401 56.0938 15.5625C56.125 15.724 56.1562 15.8594 56.1875 15.9688V16H54.3125V15.9688C54.3438 15.8594 54.3724 15.724 54.3984 15.5625C54.4297 15.401 54.4557 15.2005 54.4766 14.9609C54.4974 14.7214 54.513 14.4375 54.5234 14.1094C54.5339 13.776 54.5391 13.388 54.5391 12.9453V7.85938C54.5391 7.41667 54.5339 7.03125 54.5234 6.70312C54.513 6.36979 54.4974 6.08333 54.4766 5.84375C54.4557 5.59896 54.4297 5.39583 54.3984 5.23438C54.3724 5.07292 54.3438 4.9375 54.3125 4.82812V4.79688C54.4167 4.80729 54.526 4.81771 54.6406 4.82812C54.7396 4.83854 54.849 4.84635 54.9688 4.85156C55.0938 4.85156 55.2214 4.85156 55.3516 4.85156C55.5547 4.85156 55.8281 4.82812 56.1719 4.78125C56.5208 4.72917 56.9635 4.70312 57.5 4.70312C58 4.70312 58.4609 4.77083 58.8828 4.90625C59.3099 5.04167 59.6797 5.23958 59.9922 5.5C60.3047 5.76042 60.5469 6.08073 60.7188 6.46094C60.8958 6.83594 60.9844 7.26302 60.9844 7.74219C60.9844 8.11719 60.9349 8.46615 60.8359 8.78906C60.7422 9.10677 60.6068 9.39583 60.4297 9.65625C60.2578 9.91667 60.0495 10.1484 59.8047 10.3516C59.5599 10.5495 59.2865 10.7161 58.9844 10.8516L61.7266 14.7031C61.862 14.8958 61.987 15.0625 62.1016 15.2031C62.2214 15.3438 62.3333 15.4635 62.4375 15.5625C62.5469 15.6615 62.651 15.7448 62.75 15.8125C62.849 15.875 62.9505 15.9271 63.0547 15.9688V16H60.7969C60.7812 15.901 60.7292 15.7708 60.6406 15.6094C60.5573 15.4427 60.4583 15.2786 60.3438 15.1172L57.5781 11.2188C57.3229 11.2448 57.0599 11.2578 56.7891 11.2578C56.5182 11.2578 56.2422 11.2344 55.9609 11.1875V12.9453ZM55.9609 10.5781C56.4714 10.6719 56.9375 10.6849 57.3594 10.6172C57.7865 10.5495 58.151 10.401 58.4531 10.1719C58.7604 9.94271 58.9974 9.63281 59.1641 9.24219C59.3359 8.84635 59.4219 8.36719 59.4219 7.80469C59.4219 7.41406 59.3776 7.0599 59.2891 6.74219C59.2005 6.42448 59.0677 6.15625 58.8906 5.9375C58.7188 5.71354 58.5 5.54167 58.2344 5.42188C57.9688 5.29688 57.6589 5.23438 57.3047 5.23438C57.0807 5.23438 56.8854 5.24479 56.7188 5.26562C56.5521 5.28125 56.4115 5.29948 56.2969 5.32031C56.1615 5.34635 56.0495 5.375 55.9609 5.40625V10.5781Z" fill="white"/>
</svg>
